<svg width="519" height="413" viewBox="0 0 519 413" fill="none" xmlns="http://www.w3.org/2000/svg">
<g clip-path="url(#clip0)">
<path d="M157.511 54.0904C157.511 54.0904 138.229 52.9273 140.482 66.4678C140.482 66.4678 140.03 68.86 142.197 69.9469C142.197 69.9469 142.232 68.9311 144.176 69.2816C144.869 69.4008 145.575 69.4349 146.277 69.3832C147.223 69.3183 148.122 68.9476 148.839 68.3267C148.839 68.3267 154.263 66.0818 156.374 57.2038C156.374 57.2038 157.937 55.2687 157.896 54.771L154.629 56.1626C154.629 56.1626 155.74 58.5142 154.867 60.4696C154.867 60.4696 154.76 56.249 154.131 56.3455C154.004 56.3455 152.442 57.1632 152.442 57.1632C152.442 57.1632 154.355 61.2619 152.908 64.2382C152.908 64.2382 153.456 59.1897 151.843 57.4578L149.549 58.7986C149.549 58.7986 151.787 63.0294 150.27 66.4831C150.27 66.4831 150.661 61.1857 149.067 59.1237L146.987 60.7489C146.987 60.7489 149.093 64.9188 147.809 67.7833C147.809 67.7833 147.641 61.6174 146.54 61.1502C146.54 61.1502 144.719 62.7551 144.445 63.4154C144.445 63.4154 145.886 66.4628 144.988 68.0423C144.988 68.0423 144.445 63.9334 143.973 63.9131C143.973 63.9131 142.161 66.6354 141.974 68.4842C142.061 66.7606 142.599 65.0901 143.531 63.6389C142.487 63.8366 141.524 64.3363 140.761 65.0762C140.761 65.0762 141.04 63.1513 143.983 62.9837C143.983 62.9837 145.48 60.9165 145.881 60.7946C145.881 60.7946 142.953 60.5458 141.182 61.333C141.182 61.333 142.745 59.5198 146.414 60.3172L148.443 58.6412C148.443 58.6412 144.597 58.1333 142.963 58.697C142.963 58.697 144.846 57.0921 148.996 58.2603L151.234 56.9245C151.234 56.9245 147.951 56.2185 145.997 56.4725C145.997 56.4725 148.058 55.3602 151.889 56.5639L153.482 55.8477C153.482 55.8477 151.082 55.3754 150.376 55.2992C149.671 55.223 149.636 55.03 149.636 55.03C151.159 54.7796 152.722 54.9554 154.152 55.5379C154.152 55.5379 157.577 54.3037 157.511 54.0904Z" fill="#FF9B63" fill-opacity="0.1"/>
<path opacity="0.1" d="M304.376 69.7954C271.536 68.6526 240.254 58.0427 210.388 46.4322C180.522 34.8217 150.94 21.9567 118.887 15.8061C98.2706 11.8496 74.6912 11.2909 58.0837 22.3529C42.0952 33.0187 36.9297 51.3791 34.1542 68.4342C32.0637 81.2636 30.8357 94.7635 36.5644 106.775C40.5374 115.115 47.5955 122.124 52.4717 130.138C69.4548 157.93 57.4545 192.203 39.0507 219.34C30.4247 232.073 20.4034 244.227 13.7461 257.767C7.08892 271.308 4.00386 286.844 9.82893 300.669C15.6083 314.382 29.3744 324.662 44.2821 331.9C74.5695 346.603 110.245 350.809 145.059 353.191C222.099 358.468 299.545 356.182 376.788 353.897C405.376 353.049 434.085 352.19 462.206 347.766C477.824 345.308 493.944 341.413 505.285 331.996C519.675 320.045 523.242 299.806 513.601 284.823C497.42 259.687 452.712 253.445 441.387 226.466C435.166 211.62 441.559 195.083 450.601 181.309C470.005 151.77 502.525 125.852 504.24 92.0869C505.417 68.8913 489.779 45.6703 465.605 34.6947C440.27 23.1503 405.127 24.613 386.444 43.654C367.193 63.274 333.369 70.801 304.376 69.7954Z" fill="#FF9263"/>
<path d="M220.952 350.701L47.2756 349.853L30.0186 309.338L91.0398 304.904L80.4044 260.484L201.097 244.825L85.5242 204.61L95.7333 202.183L281.573 232.529L271.338 301.852L256.709 339.949L220.952 350.701Z" fill="#6C63FF"/>
<path d="M49.9395 332.885C49.9395 332.885 60.5951 331.178 66.9885 338.715C66.9885 338.715 62.3 342.413 52.2127 337.293L49.9395 332.885Z" fill="#E9FF63"/>
<path d="M48.823 332.717C48.823 332.717 42.0237 341.092 45.3726 350.417C45.3726 350.417 50.9135 348.197 51.5173 336.892L48.823 332.717Z" fill="#E9FF63"/>
<path d="M42.7139 318.948C42.7139 318.948 46.9761 311.121 64.0251 322.076C64.0251 322.076 61.7519 327.338 54.2219 326.912C46.692 326.485 44.7029 323.072 42.7139 318.948Z" fill="#E9FF63"/>
<path d="M41.6128 318.384C41.6128 318.384 32.7687 317.369 31.9111 337.634C31.9111 337.634 37.518 338.797 41.5012 332.387C45.4844 325.977 43.8505 322.382 41.6128 318.384Z" fill="#E9FF63"/>
<path d="M36.4629 302.218C36.4629 302.218 41.4355 288.423 59.479 298.236C59.479 298.236 55.3589 310.893 38.3099 306.911L36.4629 302.218Z" fill="#CB7B41" fill-opacity="0.85"/>
<path d="M30.9219 281.597C30.9219 281.597 40.2988 267.661 56.9216 280.581C56.9216 280.581 51.0965 293.665 32.3426 286.554L30.9219 281.597Z" fill="#CB7B41" fill-opacity="0.85"/>
<path d="M28.9326 261.972C28.9326 261.972 39.8724 249.168 56.3328 261.972C56.3328 261.972 45.9613 273.207 28.9326 265.243V261.972Z" fill="#CB7B41" fill-opacity="0.85"/>
<path d="M27.2275 242.911C27.2275 242.911 38.3094 229.543 54.0797 242.2C54.0797 242.2 41.5771 254.003 27.2275 246.039V242.911Z" fill="#CB7B41" fill-opacity="0.85"/>
<path d="M28.2227 225.988C28.2227 225.988 39.8931 208.781 54.6486 220.442C54.6486 220.442 42.146 235.232 28.2227 229.259V225.988Z" fill="#CB7B41" fill-opacity="0.85"/>
<path d="M30.9219 206.221C30.9219 206.221 43.2824 189.155 57.632 202.239C57.632 202.239 42.9982 217.029 30.9219 209.349V206.221Z" fill="#CB7B41" fill-opacity="0.85"/>
<path d="M35.0417 188.551C35.0417 188.551 49.6754 172.512 62.4419 178.901C62.4419 178.901 47.1942 195.936 34.4023 192.807L35.0417 188.551Z" fill="#CB7B41" fill-opacity="0.85"/>
<path d="M40.1565 171.801C40.1565 171.801 57.0431 152.155 66.8666 158.717C66.8666 158.717 54.4249 173.954 38.959 175.478L40.1565 171.801Z" fill="#CB7B41" fill-opacity="0.85"/>
<path d="M47.5396 152.373C47.5396 152.373 62.3205 136.334 73.1182 140.316C73.1182 140.316 60.4735 156.955 45.5557 157.381L47.5396 152.373Z" fill="#CB7B41" fill-opacity="0.85"/>
<path d="M54.2221 134.201C54.2221 134.201 70.5607 118.842 77.6645 121.544C77.6645 121.544 65.8722 138.61 53.5117 137.614L54.2221 134.201Z" fill="#CB7B41" fill-opacity="0.85"/>
<path d="M60.7578 117.421C60.7578 117.421 74.8232 99.0705 82.5004 100.493C82.5004 100.493 73.9708 116.852 60.7578 119.285V117.421Z" fill="#CB7B41" fill-opacity="0.85"/>
<path d="M67.8514 94.7939C67.8514 94.7939 80.2829 80.7303 87.001 80.7608C87.001 80.7608 77.1877 99.5529 67.3389 99.3802L67.8514 94.7939Z" fill="#CB7B41" fill-opacity="0.85"/>
<path d="M72.0527 79.729L84.0631 50.4336C84.0631 50.4336 84.6619 76.9153 70.5254 85.1635L72.0527 79.729Z" fill="#CB7B41" fill-opacity="0.85"/>
<path d="M76.9288 47.4221C76.9288 47.4221 78.9179 22.9568 77.6392 20.9658C77.6392 20.9658 86.2246 41.307 76.8477 58.2301L76.9288 47.4221Z" fill="#CB7B41" fill-opacity="0.85"/>
<path d="M35.9961 301.893C35.9961 301.893 23.5442 294.168 15.4814 313.067C15.4814 313.067 26.5633 320.431 37.4625 306.713L35.9961 301.893Z" fill="#CB7B41" fill-opacity="0.85"/>
<path d="M30.5211 280.81C30.5211 280.81 15.248 273.837 7.83984 293.568C7.83984 293.568 19.6371 301.695 31.9114 285.798L30.5211 280.81Z" fill="#CB7B41" fill-opacity="0.85"/>
<path d="M28.2224 263.146C28.2224 263.146 17.2827 250.342 0.822266 263.146C0.822266 263.146 11.1937 274.38 28.2224 266.417V263.146Z" fill="#CB7B41" fill-opacity="0.85"/>
<path d="M26.8522 242.911C26.8522 242.911 15.7703 229.543 0 242.2C0 242.2 12.5026 254.003 26.8522 246.039V242.911Z" fill="#CB7B41" fill-opacity="0.85"/>
<path d="M28.2221 226.475C28.2221 226.475 20.4485 207.201 3.55176 215.489C3.55176 215.489 12.6851 232.58 27.532 229.675L28.2221 226.475Z" fill="#CB7B41" fill-opacity="0.85"/>
<path d="M31.9012 206.124C31.9012 206.124 24.1733 186.514 7.03809 195.605C7.03809 195.605 17.5313 213.58 31.1401 209.151L31.9012 206.124Z" fill="#CB7B41" fill-opacity="0.85"/>
<path d="M36.6904 188.648C36.6904 188.648 33.646 167.149 19.4385 165.224C19.4385 165.224 22.4525 187.896 34.7775 192.523L36.6904 188.648Z" fill="#CB7B41" fill-opacity="0.85"/>
<path d="M40.5169 171.841C40.5169 171.841 39.3296 145.938 27.583 145.034C27.583 145.034 27.9788 164.695 39.1926 175.508L40.5169 171.841Z" fill="#CB7B41" fill-opacity="0.85"/>
<path d="M48.7569 151.647C48.7569 151.647 45.2558 130.107 34.042 127.477C34.042 127.477 35.4323 148.336 47.6457 156.934L48.7569 151.647Z" fill="#CB7B41" fill-opacity="0.85"/>
<path d="M55.5516 134.379C55.5516 134.379 55.4349 111.94 48.5848 108.644C48.5848 108.644 44.3378 128.959 53.5676 137.243L55.5516 134.379Z" fill="#CB7B41" fill-opacity="0.85"/>
<path d="M61.2802 117.166C61.2802 117.166 60.3212 94.0622 53.2276 90.8066C53.2276 90.8066 50.8022 109.091 60.2197 118.68L61.2802 117.166Z" fill="#CB7B41" fill-opacity="0.85"/>
<path d="M68.8406 96.6372C68.8406 96.6372 68.8001 77.8451 63.7361 73.4365C63.7361 73.4365 58.7026 94.0215 66.197 100.416L68.8406 96.6372Z" fill="#CB7B41" fill-opacity="0.85"/>
<path d="M71.4589 78.8055L66.5319 47.5293C66.5319 47.5293 59.8392 73.1577 71.6923 84.4533L71.4589 78.8055Z" fill="#CB7B41" fill-opacity="0.85"/>
<path d="M72.4181 47.7167C72.4181 47.7167 59.7735 26.6898 60.0322 24.3535C60.0322 24.3535 61.3769 46.3911 77.2842 57.3667L72.4181 47.7167Z" fill="#CB7B41" fill-opacity="0.85"/>
<path d="M73.8996 41.5054C73.8996 41.5054 61.9653 11.6412 56.5664 9.22363C56.5664 9.22363 73.6154 17.8985 74.8941 40.6522L73.8996 41.5054Z" fill="#CB7B41" fill-opacity="0.85"/>
<path d="M67.2779 99.5578L66.4609 99.3089C76.533 66.4329 79.0447 45.4721 73.5393 40.2153L74.1228 39.5957C79.9631 45.1419 77.5935 65.8742 67.2779 99.5578Z" fill="#CB7B41" fill-opacity="0.85"/>
<path d="M39.5426 176.534L38.335 176.103C39.4056 173.091 40.5574 170.033 41.7651 167.021C52.2786 140.794 61.2293 116.394 66.9681 97.6632L68.0185 97.1553C62.2695 115.922 53.4761 141.256 42.9524 167.519C41.7498 170.475 40.6031 173.517 39.5426 176.534Z" fill="#CB7B41" fill-opacity="0.85"/>
<path d="M64.9535 357.487C64.7911 357.309 48.4677 338.908 37.0865 307.495C30.4178 289.104 26.7064 269.77 26.0909 250.214C25.3095 225.769 30.4343 198.475 39.2125 173.68L40.1665 174.797C20.4586 230.447 28.288 278.133 38.6747 306.85C49.9341 337.979 66.0749 356.177 66.2322 356.359L64.9535 357.487Z" fill="#CB7B41" fill-opacity="0.85"/>
<path d="M320.039 318.42C320.039 318.42 308.536 332.473 317.669 353.719L225.828 393.588L217.014 395.437L212.955 377.661L215.67 355.227V342.966L320.039 318.42Z" fill="#D5D6DB"/>
<path d="M30.0186 309.338L157.135 286.143L325.57 313L220.952 350.701L30.0186 309.338Z" fill="#6C63FF"/>
<path d="M30.0186 309.338L157.135 286.143L325.57 313L220.952 350.701L30.0186 309.338Z" fill="#6C63FF"/>
<path d="M30.0188 309.334C30.0188 309.334 18.1302 331.879 31.8303 352.703L220.333 393.589C220.333 393.589 208.632 375.63 220.937 350.702L30.0188 309.334Z" fill="#6C63FF"/>
<path opacity="0.1" d="M30.0188 309.334C30.0188 309.334 18.1302 331.879 31.8303 352.703L220.333 393.589C220.333 393.589 208.632 375.63 220.937 350.702L30.0188 309.334Z" fill="#22252C"/>
<path opacity="0.1" d="M35.6349 317.15C35.6349 317.15 28.8407 333.647 35.6349 344.323V317.15Z" fill="#22252C"/>
<path d="M220.333 393.588L325.57 348.64C325.57 348.64 331.456 349.909 327.651 354.226C323.845 358.544 222.363 397.906 222.363 397.906L31.8301 352.703L220.333 393.588Z" fill="#6C63FF"/>
<path opacity="0.1" d="M220.333 393.588L325.57 348.64C325.57 348.64 331.456 349.909 327.651 354.226C323.845 358.544 222.363 397.906 222.363 397.906L31.8301 352.703L220.333 393.588Z" fill="#22252C"/>
<path opacity="0.1" d="M211.707 355.242C211.707 355.242 201.558 367.432 211.707 385.716V355.242Z" fill="#22252C"/>
<path opacity="0.1" d="M260.839 355.036L215.319 370.237L215.48 370.719L260.999 355.518L260.839 355.036Z" fill="#22252C"/>
<path opacity="0.1" d="M269.956 353.524L215.305 374.325L215.485 374.8L270.136 353.998L269.956 353.524Z" fill="#22252C"/>
<path opacity="0.1" d="M278.329 353.451L215.609 379.147L215.802 379.617L278.521 353.921L278.329 353.451Z" fill="#22252C"/>
<path opacity="0.1" d="M287.434 351.25L216.342 383.395L216.551 383.858L287.643 351.713L287.434 351.25Z" fill="#22252C"/>
<path opacity="0.1" d="M295.083 351.26L216.904 385.465L217.108 385.93L295.287 351.726L295.083 351.26Z" fill="#22252C"/>
<path opacity="0.1" d="M311.815 348.416L218.083 388.939L218.284 389.405L312.016 348.883L311.815 348.416Z" fill="#22252C"/>
<path opacity="0.3" d="M77.2432 311.818L166.547 293.025L220.952 303.437L147.773 327.054L77.2432 311.818Z" fill="#22252C"/>
<path d="M325.57 313.001C325.57 313.001 330.187 314.865 327.478 317.745C324.768 320.624 220.937 350.702 220.937 350.702L325.57 313.001Z" fill="#6C63FF"/>
<path d="M370.42 269.57C370.42 269.57 358.922 283.619 368.055 304.869L276.214 344.739L267.4 346.598L263.341 328.821L266.096 306.393V294.117L370.42 269.57Z" fill="#D5D6DB"/>
<path d="M80.4043 260.484L207.516 237.294L375.956 264.151L271.338 301.853L80.4043 260.484Z" fill="#6D368F"/>
<path d="M80.3837 260.484C80.3837 260.484 68.49 283.03 82.19 303.854L270.693 344.739C270.693 344.739 258.997 326.765 271.317 301.847L80.3837 260.484Z" fill="#3A3768"/>
<path opacity="0.1" d="M80.3837 260.484C80.3837 260.484 68.49 283.03 82.19 303.854L270.693 344.739C270.693 344.739 258.997 326.765 271.317 301.847L211.707 288.932L80.3837 260.484Z" fill="#FF0000"/>
<path opacity="0.1" d="M86.0164 268.301C86.0164 268.301 79.2273 284.792 86.0164 295.473V268.301Z" fill="#22252C"/>
<path d="M270.714 344.739L375.956 299.79C375.956 299.79 381.837 301.06 378.031 305.377C374.226 309.694 272.744 349.056 272.744 349.056L82.2109 303.853L270.714 344.739Z" fill="#3A3768"/>
<path opacity="0.1" d="M270.714 344.739L375.956 299.79C375.956 299.79 381.837 301.06 378.031 305.377C374.226 309.694 272.744 349.056 272.744 349.056L177.477 326.455L82.2109 303.853L270.714 344.739Z" fill="#553C3C"/>
<path opacity="0.1" d="M262.087 306.393C262.087 306.393 251.939 318.582 262.087 336.866V306.393Z" fill="#22252C"/>
<path opacity="0.1" d="M311.222 306.192L265.703 321.393L265.864 321.874L311.383 306.673L311.222 306.192Z" fill="#22252C"/>
<path opacity="0.1" d="M320.346 304.677L265.695 325.479L265.876 325.953L320.527 305.152L320.346 304.677Z" fill="#22252C"/>
<path opacity="0.1" d="M328.712 304.598L265.993 330.294L266.185 330.764L328.905 305.068L328.712 304.598Z" fill="#22252C"/>
<path opacity="0.1" d="M337.824 302.398L266.731 334.543L266.94 335.006L338.033 302.861L337.824 302.398Z" fill="#22252C"/>
<path opacity="0.1" d="M345.465 302.402L267.286 336.606L267.489 337.072L345.668 302.867L345.465 302.402Z" fill="#22252C"/>
<path opacity="0.1" d="M362.202 299.558L268.47 340.08L268.671 340.546L362.403 300.024L362.202 299.558Z" fill="#22252C"/>
<path opacity="0.45" d="M127.629 262.968L216.933 244.176L271.338 254.588L198.159 278.205L127.629 262.968Z" fill="#22252C"/>
<path d="M375.956 264.151C375.956 264.151 380.568 266.015 377.864 268.89C375.159 271.765 271.338 301.847 271.338 301.847L375.956 264.151Z" fill="#3A3768"/>
<path d="M375.19 213.687C375.19 213.687 363.687 238.914 372.82 260.159L280.979 288.855L272.185 290.719L268.126 272.943L270.841 250.509V238.233L375.19 213.687Z" fill="#D5D6DB"/>
<path d="M85.1895 204.606L212.306 181.41L380.746 208.268L276.123 245.969L85.1895 204.606Z" fill="#147EDF"/>
<path d="M85.1892 204.601C85.1892 204.601 73.2803 227.146 86.9804 247.97L275.483 288.855C275.483 288.855 263.783 270.881 276.102 245.969L85.1892 204.601Z" fill="#147EDF"/>
<path opacity="0.1" d="M68.7693 198.047C68.7693 198.047 56.8603 220.592 70.5604 241.416L259.064 282.302C259.064 282.302 247.363 264.327 259.683 239.415L68.7693 198.047Z" fill="#22252C"/>
<path opacity="0.1" d="M90.8058 212.417C90.8058 212.417 84.0115 228.913 90.8058 239.589V212.417Z" fill="#22252C"/>
<path d="M275.504 288.855L380.741 255.08C380.741 255.08 386.627 256.35 382.821 260.667C379.016 264.984 277.534 293.172 277.534 293.172L87.001 247.97L275.504 288.855Z" fill="#6C63FF"/>
<g opacity="0.1" filter="url(#filter0_d)">
<path d="M275.504 288.855L380.741 255.08C380.741 255.08 386.627 256.35 382.821 260.667C379.016 264.984 277.534 293.172 277.534 293.172L87.001 247.97L275.504 288.855Z" fill="#147EDF"/>
</g>
<path opacity="0.1" d="M266.878 250.509C266.878 250.509 256.729 262.698 266.878 280.983V250.509Z" fill="#22252C"/>
<path opacity="0.1" d="M316.015 250.308L270.495 265.509L270.656 265.991L316.175 250.79L316.015 250.308Z" fill="#22252C"/>
<path opacity="0.1" d="M325.134 248.795L270.483 269.597L270.664 270.071L325.315 249.27L325.134 248.795Z" fill="#22252C"/>
<path opacity="0.1" d="M333.496 248.718L270.776 274.414L270.969 274.884L333.688 249.188L333.496 248.718Z" fill="#22252C"/>
<path opacity="0.1" d="M342.614 246.513L271.521 278.658L271.73 279.121L342.823 246.976L342.614 246.513Z" fill="#22252C"/>
<path opacity="0.1" d="M350.258 246.522L272.079 280.727L272.282 281.192L350.461 246.988L350.258 246.522Z" fill="#22252C"/>
<path opacity="0.1" d="M366.993 243.682L273.261 284.204L273.462 284.67L367.194 244.148L366.993 243.682Z" fill="#00FF94"/>
<path opacity="0.3" d="M132.414 207.084L221.718 188.292L276.123 198.704L202.944 222.321L132.414 207.084Z" fill="#9EFF86"/>
<path d="M380.741 208.268C380.741 208.268 385.358 210.132 382.649 213.011C379.939 215.891 276.123 245.969 276.123 245.969L380.741 208.268Z" fill="#147EDF"/>
<path opacity="0.1" d="M428.772 109.746C428.772 109.746 409.491 108.583 411.744 122.123C411.744 122.123 411.292 124.515 413.459 125.602C413.459 125.602 413.494 124.586 415.438 124.937C416.131 125.053 416.837 125.087 417.538 125.038C418.476 124.969 419.366 124.599 420.075 123.982C420.075 123.982 425.505 121.737 427.61 112.859C427.61 112.859 429.173 110.924 429.133 110.426L425.875 111.818C425.875 111.818 426.986 114.169 426.114 116.125C426.114 116.125 426.007 111.904 425.383 112.001C425.256 112.001 423.688 112.818 423.688 112.818C423.688 112.818 425.601 116.917 424.16 119.893C424.16 119.893 424.708 114.845 423.089 113.113L420.796 114.454C420.796 114.454 423.034 118.685 421.516 122.138C421.516 122.138 421.907 116.841 420.314 114.779L418.239 116.404C418.239 116.404 420.339 120.574 419.055 123.439C419.055 123.439 418.888 117.273 417.787 116.805C417.787 116.805 415.97 118.41 415.691 119.071C415.691 119.071 417.132 122.118 416.239 123.698C416.239 123.698 415.691 119.589 415.225 119.568C415.225 119.568 413.413 122.291 413.225 124.139C413.313 122.415 413.852 120.744 414.788 119.294C413.743 119.492 412.778 119.992 412.013 120.731C412.013 120.731 412.297 118.807 415.235 118.639C415.235 118.639 416.731 116.572 417.132 116.445C417.132 116.445 414.21 116.201 412.434 116.988C412.434 116.988 413.997 115.175 417.665 115.973L419.695 114.296C419.695 114.296 415.844 113.789 414.215 114.352C414.215 114.352 416.092 112.747 420.248 113.916L422.48 112.58C422.48 112.58 419.198 111.874 417.244 112.128C417.244 112.128 419.304 111.015 423.135 112.219L424.733 111.503C424.733 111.503 422.328 111.031 421.623 110.954C420.918 110.878 420.882 110.685 420.882 110.685C422.405 110.432 423.969 110.608 425.398 111.193C425.398 111.193 428.833 109.959 428.772 109.746Z" fill="#FF9B63"/>
<path opacity="0.1" d="M189.985 137.742C189.985 137.742 181.582 120.306 170.886 128.899C170.886 128.899 168.577 129.671 168.688 132.094C168.688 132.094 169.576 131.632 170.211 133.501C170.448 134.161 170.761 134.792 171.144 135.38C171.664 136.177 172.428 136.783 173.321 137.107C173.321 137.107 177.923 140.753 186.696 138.265C186.696 138.265 189.147 138.686 189.548 138.392L186.747 136.223C186.747 136.223 185.225 138.341 183.104 138.529C183.104 138.529 186.737 136.38 186.346 135.883C186.265 135.781 184.824 134.801 184.824 134.801C184.824 134.801 182.181 138.473 178.882 138.661C178.882 138.661 183.551 136.68 184.271 134.42L181.988 133.069C181.988 133.069 179.385 137.091 175.635 137.447C175.635 137.447 180.445 135.207 181.465 132.81L179.04 131.794C179.04 131.794 176.427 135.664 173.301 135.944C173.301 135.944 178.598 132.79 178.466 131.596C178.466 131.596 176.178 130.794 175.468 130.87C175.468 130.87 173.529 133.607 171.703 133.607C171.703 133.607 175.016 131.124 174.813 130.722C174.813 130.722 171.555 130.469 169.84 131.23C171.386 130.462 173.105 130.111 174.828 130.215C174.145 129.399 173.238 128.8 172.22 128.493C172.22 128.493 174.037 127.802 175.615 130.286C175.615 130.286 178.152 130.585 178.451 130.875C178.451 130.875 177.238 128.203 175.691 127.04C175.691 127.04 178.035 127.513 179.106 131.103L181.567 132.079C181.567 132.079 180.151 128.462 178.847 127.32C178.847 127.32 181.161 128.178 182.17 132.399L184.423 133.699C184.423 133.699 183.444 130.484 182.267 128.904C182.267 128.904 184.241 130.164 185.058 134.095L186.463 135.141C186.463 135.141 185.702 132.81 185.448 132.16C185.195 131.51 185.321 131.378 185.321 131.378C186.287 132.584 186.898 134.034 187.087 135.568C187.087 135.568 189.802 137.894 189.985 137.742Z" fill="#FF9B63"/>
<path opacity="0.1" d="M384.719 85.1127C384.719 85.1127 376.321 67.6767 365.62 76.2702C365.62 76.2702 363.316 77.0422 363.423 79.4649C363.423 79.4649 364.316 79.0078 364.945 80.8718C365.181 81.5352 365.496 82.1678 365.883 82.7561C366.401 83.5514 367.163 84.1559 368.055 84.4778C368.055 84.4778 372.662 88.1245 381.431 85.6409C381.431 85.6409 383.881 86.0574 384.287 85.7628L381.502 83.589C381.502 83.589 379.979 85.712 377.863 85.8999C377.863 85.8999 381.491 83.7465 381.101 83.2487C381.02 83.1471 379.578 82.1669 379.578 82.1669C379.578 82.1669 376.94 85.839 373.637 86.0269C373.637 86.0269 378.31 84.0461 379.03 81.7911L376.712 80.4502C376.712 80.4502 374.114 84.4677 370.359 84.8283C370.359 84.8283 375.169 82.5834 376.194 80.1861L373.764 79.1703C373.764 79.1703 371.15 83.0456 368.03 83.3198C368.03 83.3198 373.322 80.1658 373.19 78.9773C373.19 78.9773 370.907 78.1698 370.196 78.251C370.196 78.251 368.258 80.9835 366.426 80.9835C366.426 80.9835 369.745 78.4999 369.542 78.0987C369.542 78.0987 366.284 77.8447 364.564 78.6066C366.11 77.8375 367.829 77.4872 369.552 77.5908C368.871 76.7745 367.966 76.1759 366.949 75.869C366.949 75.869 368.766 75.1783 370.344 77.6619C370.344 77.6619 372.881 77.9666 373.18 78.2561C373.18 78.2561 371.967 75.5795 370.415 74.4164C370.415 74.4164 372.759 74.8939 373.83 78.505L376.296 79.4801C376.296 79.4801 374.88 75.8588 373.576 74.7161C373.576 74.7161 375.89 75.5744 376.894 79.795L379.152 81.0952C379.152 81.0952 378.168 77.8853 376.991 76.3007C376.991 76.3007 378.97 77.5603 379.781 81.4914L381.187 82.5377C381.187 82.5377 380.431 80.2064 380.172 79.5563C379.913 78.9062 380.045 78.7792 380.045 78.7792C381.008 79.9862 381.617 81.4366 381.806 82.9694C381.806 82.9694 384.561 85.2752 384.719 85.1127Z" fill="#FF9B63"/>
<path opacity="0.1" d="M411.556 171.358C411.556 171.358 403.158 153.917 392.442 162.511C392.442 162.511 390.138 163.283 390.245 165.706C390.245 165.706 391.138 165.248 391.767 167.112C392.002 167.776 392.315 168.408 392.701 168.997C393.218 169.792 393.98 170.397 394.872 170.719C394.872 170.719 399.48 174.37 408.253 171.882C408.253 171.882 410.699 172.303 411.105 172.003L408.304 169.835C408.304 169.835 406.781 171.958 404.66 172.146C404.66 172.146 408.288 169.992 407.898 169.494C407.816 169.393 406.375 168.413 406.375 168.413C406.375 168.413 403.737 172.085 400.434 172.278C400.434 172.278 405.107 170.292 405.827 168.037L403.539 166.686C403.539 166.686 400.941 170.708 397.186 171.064C397.186 171.064 401.996 168.819 403.021 166.422L400.591 165.406C400.591 165.406 397.978 169.276 394.857 169.555C394.857 169.555 400.155 166.401 400.023 165.208C400.023 165.208 397.734 164.4 397.024 164.482C397.024 164.482 395.086 167.214 393.254 167.214C393.254 167.214 396.572 164.73 396.369 164.329C396.369 164.329 393.112 164.075 391.392 164.837C392.939 164.068 394.66 163.718 396.384 163.821C395.703 163.004 394.796 162.405 393.776 162.1C393.776 162.1 395.593 161.404 397.171 163.892C397.171 163.892 399.708 164.192 400.007 164.482C400.007 164.482 398.795 161.81 397.247 160.642C397.247 160.642 399.591 161.119 400.662 164.73L403.123 165.706C403.123 165.706 401.707 162.084 400.403 160.947C400.403 160.947 402.717 161.8 403.722 166.026L405.98 167.321C405.98 167.321 404.995 164.111 403.818 162.526C403.818 162.526 405.797 163.786 406.614 167.722L408.019 168.738C408.019 168.738 407.258 166.406 407.005 165.756C406.751 165.106 406.878 164.979 406.878 164.979C407.843 166.185 408.452 167.636 408.638 169.169C408.638 169.169 411.399 171.511 411.556 171.358Z" fill="#FF9B63"/>
<path opacity="0.1" d="M102.472 398.271C108.915 398.271 114.137 397.687 114.137 396.966C114.137 396.245 108.915 395.661 102.472 395.661C96.0294 395.661 90.8066 396.245 90.8066 396.966C90.8066 397.687 96.0294 398.271 102.472 398.271Z" fill="#C73434"/>
<path opacity="0.1" d="M25.9994 376.086C32.442 376.086 37.6647 375.502 37.6647 374.781C37.6647 374.06 32.442 373.476 25.9994 373.476C19.5568 373.476 14.334 374.06 14.334 374.781C14.334 375.502 19.5568 376.086 25.9994 376.086Z" fill="#C73434"/>
<path opacity="0.1" d="M160.763 413.005C167.206 413.005 172.428 412.421 172.428 411.7C172.428 410.979 167.206 410.395 160.763 410.395C154.32 410.395 149.098 410.979 149.098 411.7C149.098 412.421 154.32 413.005 160.763 413.005Z" fill="#C73434"/>
<path opacity="0.1" d="M459.476 380.911C465.919 380.911 471.141 380.327 471.141 379.606C471.141 378.885 465.919 378.301 459.476 378.301C453.033 378.301 447.811 378.885 447.811 379.606C447.811 380.327 453.033 380.911 459.476 380.911Z" fill="#C73434"/>
<path opacity="0.1" d="M362.403 374.577C368.845 374.577 374.068 373.993 374.068 373.272C374.068 372.551 368.845 371.967 362.403 371.967C355.96 371.967 350.737 372.551 350.737 373.272C350.737 373.993 355.96 374.577 362.403 374.577Z" fill="#C73434"/>
<path opacity="0.1" d="M299.606 405.468C307.226 405.468 313.403 404.406 313.403 403.096C313.403 401.786 307.226 400.724 299.606 400.724C291.986 400.724 285.81 401.786 285.81 403.096C285.81 404.406 291.986 405.468 299.606 405.468Z" fill="#C73434"/>
<path d="M305.761 379.255C305.761 379.255 286.55 389.19 296.475 400.892C296.475 400.892 297.409 403.431 300.108 403.253C300.108 403.253 299.57 402.268 301.63 401.481C302.363 401.197 303.06 400.827 303.706 400.379C304.578 399.775 305.23 398.903 305.563 397.895C305.563 397.895 309.49 392.633 306.446 382.897C306.446 382.897 306.841 380.144 306.496 379.697L304.162 382.902C304.162 382.902 306.573 384.522 306.852 386.904C306.852 386.904 304.315 382.907 303.807 383.349C303.695 383.44 302.65 385.101 302.65 385.101C302.65 385.101 306.831 387.94 307.141 391.628C307.141 391.628 304.786 386.462 302.244 385.726L300.788 388.326C300.788 388.326 305.355 391.11 305.862 395.295C305.862 395.295 303.208 389.987 300.499 388.916L299.428 391.663C299.428 391.663 303.832 394.467 304.238 397.951C304.238 397.951 300.555 392.125 299.23 392.308C299.23 392.308 298.398 394.888 298.51 395.686C298.51 395.686 301.62 397.768 301.676 399.815C301.676 399.815 298.804 396.184 298.363 396.422C298.363 396.422 298.18 400.074 299.063 401.974C299.063 401.974 297.541 399.261 297.789 396.422C296.899 397.21 296.259 398.241 295.947 399.388C295.947 399.388 295.12 397.382 297.845 395.533C297.845 395.533 298.104 392.694 298.418 392.344C298.418 392.344 295.47 393.786 294.217 395.554C294.217 395.554 294.679 392.918 298.677 391.607L299.692 388.824C299.692 388.824 295.694 390.52 294.461 392.014C294.461 392.014 295.349 389.398 300.007 388.144L301.387 385.604C301.387 385.604 297.835 386.803 296.1 388.144C296.1 388.144 297.444 385.894 301.813 384.857L302.934 383.258C302.934 383.258 300.357 384.177 299.636 384.507C298.916 384.837 298.774 384.675 298.774 384.675C300.091 383.56 301.691 382.832 303.396 382.572C303.396 382.572 305.938 379.428 305.761 379.255Z" fill="#FF9B63" fill-opacity="0.1"/>
<path d="M362.778 191.624C359.46 182.599 341.193 181.75 333.267 184.051C327.635 185.692 315.762 187.54 309.419 188.47L309.008 188.079C309.83 187.835 309.85 187.236 309.749 186.347C309.69 185.175 309.707 184.001 309.8 182.832C313.686 184.041 317.147 181.181 317.147 181.181C321.714 179.15 320.486 170.455 321.358 168.078C322.013 166.3 322.718 155.827 323.033 150.606H323.099L323.134 148.854C323.18 148.097 323.2 147.655 323.2 147.655C323.2 147.655 323.647 134.887 324.52 132.302C325.331 129.925 325.991 117.949 326.093 116.049C326.093 115.887 326.093 115.8 326.093 115.8L326.027 114.693C326.072 113.885 326.093 112.986 326.087 112.042C326.087 107.699 325.636 102.229 325.58 101.345C325.58 101.218 325.58 101.066 325.58 100.883C325.616 99.0295 325.382 89.7451 317.492 86.2356C314.584 84.9354 311.088 83.3863 307.704 81.8779C306.831 74.3356 304.837 66.834 305.01 59.2359C305.01 58.0931 305.111 56.9504 305.223 55.8127C305.223 56.1428 305.187 56.478 305.182 56.8285C305.182 57.5649 305.182 58.3064 305.182 59.0429C305.482 49.5402 309.069 39.9867 308.734 30.6871C308.704 31.5962 308.638 32.5104 308.551 33.4247C308.727 30.2792 308.398 27.1259 307.577 24.0845C307.273 23.0128 306.862 21.9056 305.984 21.1895C305.154 20.6127 304.203 20.2355 303.203 20.0873C300.802 19.4722 298.363 19.0174 295.902 18.7262C295.528 17.5802 294.973 16.5017 294.258 15.5315C289.112 8.46161 281.491 1.81834 272.48 0.294658C267.959 -0.467185 262.758 0.167684 259.683 3.40298C259.362 3.68719 259.06 3.99261 258.779 4.31719C257.125 6.2929 256.415 8.88824 254.72 10.8589C254.609 10.9909 254.482 11.1128 254.36 11.2398C251.041 14.211 245.871 14.8306 242.182 17.4971C241.532 17.9757 240.923 18.5075 240.36 19.0868C238.874 20.5612 237.541 22.1829 236.382 23.927C234.723 26.2633 233.018 28.6962 232.491 31.4845C231.43 37.0713 235.231 42.3687 235.936 47.9911C237.509 60.5717 223.601 71.7352 226.234 84.1481C226.937 87.1976 228.489 89.9853 230.709 92.1881C225.285 97.1045 220.668 101.874 220.668 101.874V102.158H219.81L219.897 103.174H219.81L220.282 108.685L219.81 116.709C219.81 116.709 219.81 116.796 219.81 116.958V116.999V117.217C219.81 117.217 219.81 117.304 219.81 117.466H219.841C219.998 120.407 220.622 130.981 221.363 133.211C222.236 135.796 222.677 148.564 222.677 148.564C222.677 148.564 223.641 166.61 224.524 168.997C225.407 171.384 224.154 180.054 228.736 182.101C230.076 183.13 231.663 183.789 233.338 184.01C233.104 185.91 233.252 187.286 234.008 187.718C234.331 187.909 234.698 188.013 235.073 188.023C234.762 188.484 234.486 188.968 234.246 189.47C232.427 189.28 230.641 188.859 228.928 188.216C224.007 186.184 207.673 181.613 202.929 184.828C198.184 188.043 186.768 190.958 192.04 203.9C197.312 216.841 199.768 217.166 199.768 217.166C201.39 218.345 202.814 219.777 203.984 221.407C205.567 223.789 220.318 229.239 224.007 229.239C225.575 229.214 227.142 229.292 228.7 229.472C228.7 229.472 224.697 232.987 225.229 235.029C225.762 237.07 224.012 253.414 224.012 253.414C224.012 253.414 228.071 257.508 229.806 252.14L229.867 252.221C230.192 252.663 231.948 254.659 235.251 252.14C236.603 251.113 238.039 250.202 239.544 249.417L255.537 247.152C257.205 247.048 258.876 247.036 260.545 247.116C263.082 247.325 265.574 245.821 267.142 244.658C270.455 245.918 274.179 247.294 275.95 247.797C279.543 248.813 296.054 253.247 299.915 251.86C300.718 251.541 301.432 251.032 301.996 250.377L305.679 250.494L303.954 250.839C303.954 250.839 307.313 250.895 311.88 250.956L311.687 251.068L317.416 251.017C325.798 251.093 335.216 251.119 336.454 250.839C338.392 250.408 348.464 250.712 351.433 250.839H352.26C352.26 250.839 363.326 248.63 358.76 237.39C355.248 228.756 344.456 226.247 339.666 225.556C341.016 225.287 342.178 225.079 342.949 224.957C346.293 224.449 352.787 221.402 353.315 220.361C353.843 219.319 359.287 216.297 360.693 214.576C362.098 212.854 366.112 200.649 362.778 191.624ZM271.115 216.881L270.572 217.059L270.206 217.181L269.506 217.872C268.948 217.496 268.349 217.1 267.725 216.694C268.826 216.76 269.958 216.826 271.115 216.881Z" fill="url(#paint0_linear)"/>
<path d="M303.467 163.329C303.467 163.329 311.23 183.645 315.645 181.613C320.059 179.582 318.862 170.948 319.704 168.581C320.546 166.214 321.48 148.265 321.48 148.265C321.48 148.265 321.906 135.568 322.748 132.998C323.53 130.636 324.164 118.726 324.271 116.852C324.271 116.689 324.271 116.603 324.271 116.603L323.433 101.874L318.694 100.69L307.704 104.754L306.181 113.454L305.588 116.852L305.334 118.299L303.467 163.329Z" fill="#BE6F72"/>
<path opacity="0.1" d="M306.024 159.926C306.024 159.926 313.433 165.995 315.665 166.528C317.898 167.062 319.268 171.795 319.268 171.795" fill="#22252C"/>
<path d="M242.755 164.218C242.755 164.218 234.992 184.534 230.577 182.502C226.163 180.47 227.36 171.836 226.518 169.469C225.676 167.103 224.742 149.154 224.742 149.154C224.742 149.154 224.316 136.456 223.473 133.886C222.692 131.525 222.058 119.614 221.951 117.74C221.951 117.578 221.951 117.491 221.951 117.491L222.793 102.762L227.533 101.579L238.523 105.642L240.045 114.343L240.639 117.74L240.893 119.188L242.755 164.218Z" fill="#BE6F72"/>
<path d="M293.309 55.498H275.98V82.5333H293.309V55.498Z" fill="#3E373A"/>
<path opacity="0.1" d="M293.309 55.498H275.98V82.5333H293.309V55.498Z" fill="#22252C"/>
<path d="M239.711 184.452C239.711 184.452 233.79 190.968 235.987 192.152C238.184 193.335 252.397 215.515 252.397 215.515C252.397 215.515 299.078 221.27 307.882 212.635C316.685 204.001 316.508 188.576 316.508 188.576C316.508 188.576 309.435 190.1 308.663 189.272C307.892 188.444 303.655 184.452 303.655 184.452C303.655 184.452 243.771 180.816 239.711 184.452Z" fill="#4B4B5B"/>
<path opacity="0.02" d="M239.711 184.452C239.711 184.452 233.79 190.968 235.987 192.152C238.184 193.335 252.397 215.515 252.397 215.515C252.397 215.515 299.078 221.27 307.882 212.635C316.685 204.001 316.508 188.576 316.508 188.576C316.508 188.576 309.435 190.1 308.663 189.272C307.892 188.444 303.655 184.452 303.655 184.452C303.655 184.452 243.771 180.816 239.711 184.452Z" fill="#22252C"/>
<path d="M323.748 102.087L308.526 114.276L303.924 114.611L302.234 114.733L273.855 116.816L244.425 114.662L240.046 114.342L234.464 113.936L222.794 102.762C222.794 102.762 231.055 93.9044 238.29 87.9265C241.142 85.5648 243.836 83.6551 245.8 82.9034L246.135 82.7866C247.37 82.3045 248.473 81.535 249.352 80.5417C255.065 74.645 260.347 60.0939 260.347 60.0939C260.347 60.0939 285.551 47.0613 282.506 64.157C279.462 81.2528 293.837 77.0271 293.837 77.0271L298.576 79.1907L300.448 80.049L305.223 82.2381L315.995 87.185C324.449 91.0805 323.748 102.087 323.748 102.087Z" fill="#BE6F72"/>
<path opacity="0.1" d="M272.673 74.016C285.191 74.016 295.339 63.8584 295.339 51.3283C295.339 38.7982 285.191 28.6406 272.673 28.6406C260.155 28.6406 250.007 38.7982 250.007 51.3283C250.007 63.8584 260.155 74.016 272.673 74.016Z" fill="#22252C"/>
<path opacity="0.1" d="M323.783 118.249H221.951C221.951 118.086 221.951 118 221.951 118L222.793 103.271C222.793 103.271 231.054 94.413 238.29 88.4351L302.224 85.8956L305.197 82.7568L315.969 87.7037C324.428 91.5942 323.748 102.6 323.748 102.6C323.748 102.6 324.905 115.354 323.783 118.249Z" fill="#22252C"/>
<path d="M323.783 117.74H221.951C221.951 117.577 221.951 117.491 221.951 117.491L222.793 102.762C222.793 102.762 231.054 93.9042 238.29 87.9263L302.224 85.3868L305.197 82.248L315.969 87.1949C324.428 91.0854 323.748 102.092 323.748 102.092C323.748 102.092 324.905 114.845 323.783 117.74Z" fill="#E7C7CA"/>
<path opacity="0.1" d="M256.349 76.4386C256.349 76.4386 272.414 96.9271 293.812 76.017C315.209 55.107 296.181 122.657 296.181 122.657L250.007 128.142L256.349 76.4386Z" fill="#22252C"/>
<path d="M256.349 77.4542C256.349 77.4542 272.414 97.9427 293.812 77.0326C315.209 56.1226 296.181 123.673 296.181 123.673L250.007 129.158L256.349 77.4542Z" fill="#E7C7CA"/>
<path opacity="0.1" d="M300.423 81.0499L302.123 106.998L303.945 115.633L305.335 122.235C305.335 122.235 308.887 173.025 307.872 175.564C306.857 178.104 308.379 180.135 308.592 181.486C308.805 182.837 308.379 186.23 308.547 187.754C308.714 189.277 308.547 189.953 304.66 189.409C300.773 188.866 295.354 187.921 295.354 187.921C295.354 187.921 281.654 188.937 276.92 187.246C272.186 185.554 263.22 185.549 263.22 185.549C263.22 185.549 249.687 185.89 245.293 185.382C240.899 184.874 238.524 190.801 235.652 189.105C232.78 187.408 239.031 170.993 241.061 166.249C243.091 161.506 238.357 149.489 238.357 149.489L244.446 115.678L245.8 108.014V83.9195L246.135 83.8027C247.37 83.3206 248.473 82.5511 249.352 81.5578L250.874 105.805L298.571 107.501V80.2119" fill="#22252C"/>
<path d="M300.423 80.0343L302.123 105.983L303.945 114.617L305.335 121.22C305.335 121.22 308.887 172.009 307.872 174.549C306.857 177.088 308.379 179.12 308.592 180.471C308.805 181.822 308.379 185.214 308.547 186.738C308.714 188.262 308.547 188.937 304.66 188.394C300.773 187.85 295.354 186.906 295.354 186.906C295.354 186.906 281.654 187.921 276.92 186.23C272.186 184.539 263.22 184.534 263.22 184.534C263.22 184.534 249.687 184.874 245.293 184.366C240.899 183.858 238.524 189.785 235.652 188.089C232.78 186.393 239.031 169.977 241.061 165.234C243.091 160.49 238.357 148.473 238.357 148.473L244.446 114.663L245.8 106.998V82.9039L246.135 82.7871C247.37 82.305 248.473 81.5355 249.352 80.5422L250.874 104.789L298.571 106.485V79.1963" fill="#E7C7CA"/>
<path opacity="0.1" d="M305.908 25.8825C305.619 24.821 305.218 23.7189 304.386 23.0078C303.591 22.4367 302.673 22.0609 301.707 21.9108C299.392 21.3016 297.039 20.8502 294.664 20.5598C294.324 19.432 293.811 18.3643 293.142 17.3956C288.169 10.3663 280.811 3.73827 272.155 2.23998C267.624 1.45275 262.372 2.15872 259.47 5.7343C257.876 7.69985 257.191 10.3054 255.583 12.2354C252.483 15.9836 246.886 16.4458 242.979 19.3459C240.893 20.8696 239.381 23.0789 237.905 25.2222C236.306 27.5433 234.662 29.9609 234.155 32.734C233.14 38.2751 236.799 43.5572 237.473 49.1492C238.996 61.6586 225.6 72.7561 228.132 85.098C229.609 92.2949 236.251 97.3636 243.121 99.9336C245.541 100.843 248.307 101.747 249.438 104.073C249.946 105.089 250.032 106.262 250.509 107.288C252.112 110.711 257.384 110.843 260.216 108.349C263.047 105.856 263.94 101.823 264.275 98.0595C265.635 81.624 259.059 65.3866 259.825 48.9105C260.053 43.928 261.454 38.2751 265.914 36.0201C271.917 32.9727 279.137 38.0517 285.743 37.0816C288.87 44.6956 289.533 53.0989 287.641 61.1101C286.591 65.4932 284.774 69.7443 284.642 74.2646C284.444 81.1466 288.154 87.4343 291.36 93.5189C292.049 94.6567 292.509 95.9177 292.715 97.2316C292.766 98.5647 292.518 99.8922 291.99 101.117C290.178 105.998 287.053 110.528 286.697 115.724C286.593 116.331 286.73 116.954 287.078 117.461C287.435 117.8 287.897 118.007 288.387 118.05C293.867 118.99 298.606 114.129 301.28 109.248C304.262 103.858 305.999 97.8667 306.365 91.7159C306.918 81.3751 303.214 71.202 303.442 60.8511C303.706 49.0831 309.018 37.234 305.908 25.8825Z" fill="#22252C"/>
<path d="M306.416 25.3747C306.127 24.3132 305.726 23.2111 304.894 22.5C304.099 21.9289 303.181 21.5531 302.214 21.403C299.9 20.7938 297.547 20.3424 295.172 20.052C294.832 18.9242 294.319 17.8565 293.649 16.8878C288.677 9.85849 281.319 3.23046 272.663 1.73217C268.132 0.944934 262.88 1.65091 259.977 5.22649C258.384 7.19204 257.699 9.79755 256.091 11.7275C252.99 15.4758 247.394 15.938 243.487 18.8381C241.401 20.3618 239.889 22.5711 238.413 24.7144C236.814 27.0355 235.17 29.4531 234.663 32.2262C233.648 37.7673 237.306 43.0494 237.981 48.6414C239.503 61.1508 226.108 72.2483 228.64 84.5902C230.116 91.7871 236.758 96.8559 243.629 99.4258C246.049 100.335 248.814 101.239 249.946 103.565C250.453 104.581 250.54 105.754 251.017 106.78C252.62 110.203 257.892 110.335 260.723 107.842C263.555 105.348 264.448 101.315 264.783 97.5517C266.143 81.1162 259.567 64.8788 260.333 48.4027C260.561 43.4202 261.961 37.7673 266.422 35.5123C272.424 32.4649 279.645 37.5439 286.251 36.5738C289.377 44.1878 290.041 52.5911 288.149 60.6023C287.099 64.9854 285.282 69.2365 285.15 73.7568C284.952 80.6388 288.661 86.9265 291.868 93.0111C292.556 94.1489 293.017 95.41 293.223 96.7238C293.274 98.0569 293.026 99.3844 292.497 100.609C290.686 105.49 287.56 110.021 287.205 115.216C287.101 115.823 287.238 116.446 287.586 116.953C287.943 117.292 288.405 117.499 288.895 117.542C294.375 118.482 299.114 113.621 301.788 108.741C304.77 103.35 306.507 97.3589 306.872 91.2081C307.425 80.8673 303.721 70.6942 303.95 60.3433C304.214 48.5753 309.526 36.7262 306.416 25.3747Z" fill="#3E373A"/>
<path d="M295.206 250.255L315.335 250.9L312.448 235.958L297.028 237.426L295.206 250.255Z" fill="#C3C7D9"/>
<path d="M357.577 214.84C356.222 216.531 350.981 219.578 350.473 220.594C349.966 221.61 343.709 224.657 340.492 225.165C337.275 225.673 327.132 227.877 325.27 229.061C323.936 229.914 313.224 232.616 306.186 234.114C304.28 234.566 302.351 234.913 300.407 235.155C297.362 235.323 264.046 223.982 264.046 223.982L270.47 217.379L270.825 217.257C272.641 216.643 281.034 213.804 285.692 212.453C290.939 210.929 297.028 204.667 297.028 204.667C297.028 204.667 305.988 201.619 307.176 201.279C308.363 200.939 304.131 189.43 304.131 189.43C304.131 189.43 323.58 186.728 331.192 184.437C338.803 182.147 356.395 182.995 359.606 191.969C362.818 200.944 358.952 213.148 357.577 214.84Z" fill="#4B4B5B"/>
<path d="M268.948 243.45C268.948 243.45 265.061 247.513 261.169 247.178C257.277 246.843 243.668 248.194 243.668 248.194C241.202 249.178 238.893 250.518 236.813 252.17C233.632 254.679 231.942 252.678 231.628 252.252L231.572 252.17C229.877 257.508 225.99 253.44 225.99 253.44C225.99 253.44 227.68 237.187 227.162 235.156C226.645 233.124 230.506 229.635 230.506 229.635L235.073 228.472L246.642 225.506L263.219 231.26L268.948 243.45Z" fill="#E7C7CA"/>
<path opacity="0.1" d="M235.053 228.472L231.628 252.251L231.572 252.17C229.877 257.508 225.99 253.44 225.99 253.44C225.99 253.44 227.68 237.187 227.162 235.156C226.645 233.124 230.506 229.635 230.506 229.635L235.053 228.472Z" fill="#22252C"/>
<path opacity="0.1" d="M258.992 160.83C258.992 160.83 267.953 163.877 275.737 160.83H258.992Z" fill="#22252C"/>
<path opacity="0.1" d="M289.584 166.59C289.584 166.59 293.303 168.449 296.18 166.59H289.584Z" fill="#22252C"/>
<path opacity="0.1" d="M289.584 170.998C289.584 170.998 295.84 171.836 297.028 170.145L289.584 170.998Z" fill="#22252C"/>
<path opacity="0.1" d="M287.555 180.47C287.555 180.47 299.306 178.947 302.224 176.915L287.555 180.47Z" fill="#22252C"/>
<path opacity="0.1" d="M251.696 176.915C251.696 176.915 258.293 180.638 263.199 180.47L251.696 176.915Z" fill="#22252C"/>
<path opacity="0.1" d="M306.182 234.114C304.275 234.565 302.346 234.913 300.402 235.155C297.358 235.323 264.041 223.981 264.041 223.981L270.465 217.379L270.82 217.257C271.835 217.973 272.667 218.588 273.261 219.055C276.057 221.259 278.756 218.379 279.771 218.379C280.786 218.379 289.579 225.657 289.579 225.657C289.579 225.657 297.698 227.521 299.052 229.213C300.407 230.904 305.141 230.569 305.984 231.752C306.237 232.118 306.268 233.017 306.182 234.114Z" fill="#22252C"/>
<path d="M243.669 190.12C243.669 190.12 235.459 190.592 230.725 188.596C225.99 186.6 210.261 181.994 205.694 185.229C201.127 188.464 190.132 191.324 195.206 204.194C200.28 217.064 202.649 217.399 202.649 217.399C204.219 218.577 205.59 220.001 206.709 221.615C208.231 223.986 222.439 229.401 225.99 229.401C229.542 229.401 235.799 229.401 244.592 235.495C253.385 241.59 261.337 242.271 261.337 242.271C261.337 242.271 272.5 246.842 275.975 247.857C279.451 248.873 295.333 253.272 299.058 251.921C302.782 250.57 305.146 242.098 305.146 242.098C305.146 242.098 306.836 234.48 305.989 233.296C305.141 232.113 300.407 232.448 299.058 230.757C297.708 229.065 289.584 227.201 289.584 227.201C289.584 227.201 280.811 219.918 279.796 219.918C278.781 219.918 276.082 222.793 273.286 220.594C267.717 216.465 261.866 212.731 255.775 209.42C249.352 206.032 243.669 190.12 243.669 190.12Z" fill="#4B4B5B"/>
<path opacity="0.1" d="M227.163 195.032C228.625 194.733 230.136 194.776 231.578 195.158C233.021 195.539 234.356 196.249 235.48 197.231C239.539 200.619 253.198 207.42 253.198 207.42" fill="#22252C"/>
<path opacity="0.1" d="M328.655 194.818C328.655 194.818 310.556 197.561 307.177 201.284L328.655 194.818Z" fill="#22252C"/>
<path d="M349.459 250.901H348.662C345.8 250.799 336.104 250.494 334.236 250.901C332.039 251.408 302.944 250.901 302.944 250.901L308.632 249.717C308.632 249.717 306.522 242.312 307.861 241.698C307.861 241.698 300.25 236.68 305.989 233.292C311.728 229.904 317.913 231.331 317.913 231.331L332.318 226.445L335.084 225.506C335.084 225.506 351.321 226.354 355.715 237.528C360.109 248.701 349.459 250.901 349.459 250.901Z" fill="#E7C7CA"/>
<path opacity="0.1" d="M349.459 250.901H348.662C353.386 247 364.072 235.125 332.318 226.471L335.084 225.531C335.084 225.531 351.321 226.379 355.715 237.553C360.109 248.727 349.459 250.901 349.459 250.901Z" fill="#22252C"/>
<path d="M319.608 237.736C320.098 237.736 320.496 237.338 320.496 236.847C320.496 236.356 320.098 235.958 319.608 235.958C319.117 235.958 318.72 236.356 318.72 236.847C318.72 237.338 319.117 237.736 319.608 237.736Z" fill="#4B4B5B"/>
<path d="M314.448 239.203C314.938 239.203 315.336 238.805 315.336 238.315C315.336 237.824 314.938 237.426 314.448 237.426C313.957 237.426 313.56 237.824 313.56 238.315C313.56 238.805 313.957 239.203 314.448 239.203Z" fill="#4B4B5B"/>
<g opacity="0.1">
<path opacity="0.1" d="M289.305 50.4895C289.502 44.903 288.509 39.3386 286.392 34.1657C279.796 35.151 272.57 30.0569 266.563 33.1042C262.118 35.3593 260.722 41.0122 260.474 45.9946C260.413 47.3101 260.403 48.6255 260.428 49.941C260.428 49.4737 260.428 49.0013 260.474 48.5341C260.707 43.5516 262.102 37.8988 266.563 35.6437C272.57 32.5963 279.786 37.6753 286.392 36.7052C288.185 41.0868 289.171 45.7566 289.305 50.4895Z" fill="#22252C"/>
<path opacity="0.1" d="M238.188 49.5599C238.275 48.4532 238.253 47.3406 238.122 46.2383C237.584 41.7688 235.144 37.4974 234.702 33.1396C234.134 38.3964 237.478 43.4448 238.122 48.7777C238.188 49.052 238.188 49.2958 238.188 49.5599Z" fill="#22252C"/>
<path opacity="0.1" d="M264.924 95.1384C264.61 98.9069 263.722 102.935 260.865 105.433C258.008 107.932 252.746 107.795 251.158 104.372C250.651 103.356 250.575 102.173 250.082 101.157C248.956 98.8308 246.185 97.9267 243.765 97.0176C236.89 94.4425 230.258 89.3991 228.781 82.182C228.649 81.5281 228.559 80.8665 228.512 80.2012C228.388 81.7131 228.478 83.235 228.781 84.7214C230.258 91.9183 236.9 96.982 243.765 99.5571C246.185 100.466 248.956 101.37 250.082 103.696C250.59 104.712 250.676 105.885 251.158 106.911C252.756 110.335 258.028 110.467 260.865 107.973C263.701 105.479 264.584 101.446 264.924 97.6778C265.079 95.6943 265.131 93.7041 265.081 91.7152C265.081 92.8681 265.015 94.0058 264.924 95.1384Z" fill="#22252C"/>
<path opacity="0.1" d="M304.116 57.9355C304.116 58.6719 304.116 59.4033 304.116 60.1347C304.4 50.6878 307.861 41.1902 307.521 31.9414C307.257 40.4944 304.309 49.2403 304.116 57.9355Z" fill="#22252C"/>
<path opacity="0.1" d="M293.228 96.1491C293.352 95.5464 293.392 94.9292 293.344 94.3156C293.14 93.0011 292.68 91.7397 291.99 90.6028C289.057 85.016 285.713 79.2971 285.317 73.0957C285.317 73.3598 285.282 73.6036 285.277 73.888C285.074 80.7649 288.783 87.0577 291.99 93.1423C292.535 94.0847 292.951 95.096 293.228 96.1491Z" fill="#22252C"/>
<path opacity="0.1" d="M307.034 88.8C306.656 94.9532 304.906 100.944 301.915 106.333C299.235 111.213 294.501 116.074 289.016 115.134C288.525 115.092 288.063 114.882 287.707 114.54C287.604 114.424 287.523 114.289 287.469 114.144C287.408 114.54 287.357 114.941 287.326 115.348C287.222 115.953 287.358 116.575 287.707 117.08C288.063 117.422 288.525 117.631 289.016 117.674C294.501 118.613 299.235 113.753 301.915 108.872C304.906 103.483 306.656 97.4927 307.034 91.3394C307.095 90.151 307.1 88.9676 307.065 87.7842C307.055 88.1245 307.055 88.4597 307.034 88.8Z" fill="#22252C"/>
</g>
<path opacity="0.1" d="M307.861 241.697C307.861 241.697 320.704 247.091 329.173 235.155" stroke="#22252C" stroke-miterlimit="10"/>
<path opacity="0.1" d="M310.389 251.124C310.389 251.124 320.877 244.298 334.237 250.9" stroke="#22252C" stroke-miterlimit="10"/>
<path opacity="0.1" d="M240.183 249.575C240.183 249.575 244.587 239.63 256.349 247.213" stroke="#22252C" stroke-miterlimit="10"/>
<path opacity="0.1" d="M225.904 102.508L234.885 94.3819C234.885 94.3819 269.709 92.0963 271.15 103.946C271.15 103.946 283.495 89.8972 309.46 93.0258L320.445 101.782L290.082 115.119L260.576 125.363L238.843 115.627L225.904 102.508Z" fill="#22252C"/>
<path d="M225.904 103.016L234.885 94.8897C234.885 94.8897 269.709 92.6042 271.15 104.453C271.15 104.453 283.495 90.405 309.46 93.5336L320.445 102.29L290.082 115.627L260.576 125.871L238.843 116.135L225.904 103.016Z" fill="#D5D6DB"/>
<path opacity="0.1" d="M221.932 104.032L225.905 151.607L268.02 153.725L266.193 106.353L266.158 105.556L221.932 104.032Z" fill="#22252C"/>
<path d="M221.932 103.017L225.905 150.591L268.02 152.709L266.193 105.338L266.158 104.54L221.932 103.017Z" fill="#BE4848"/>
<path opacity="0.1" d="M322.373 103.017L278.929 109.538V157.326L321.384 151.185L322.373 103.017Z" fill="#22252C"/>
<path d="M322.373 102.001L278.929 108.522V156.31L321.384 150.17L322.373 102.001Z" fill="#BE4848"/>
<path opacity="0.3" d="M312.129 113.662L288.661 116.273L289.174 124.277L312.114 121.768L312.129 113.662Z" fill="#22252C"/>
<path d="M228.188 176.067L230.578 182.502C230.578 182.502 234.13 185.55 238.016 184.026C241.903 182.502 245.293 181.745 246.982 180.262C248.672 178.779 251.042 171.329 251.042 171.329C251.042 171.329 253.411 163.202 255.776 161.171C258.14 159.139 264.402 131.149 255.776 133.887C247.15 136.624 240.553 162.019 240.553 162.019C240.553 162.019 239.031 163.878 236.834 164.05C234.637 164.223 230.238 163.71 229.39 165.574C228.543 167.438 225.651 172.344 228.188 176.067Z" fill="#BE6F72"/>
<path opacity="0.1" d="M278.929 109.533C276.704 110.035 274.394 110.008 272.181 109.456C269.969 108.904 267.916 107.842 266.188 106.354L268.019 153.72C268.019 153.72 272.332 158.392 278.929 157.326V109.533Z" fill="#22252C"/>
<path d="M278.929 108.517C276.704 109.019 274.394 108.993 272.181 108.441C269.969 107.889 267.916 106.826 266.188 105.338L268.019 152.704C268.019 152.704 272.332 157.377 278.929 156.31V108.517Z" fill="#B33D3D"/>
<path opacity="0.1" d="M278.929 108.517C276.704 109.019 274.394 108.993 272.181 108.441C269.969 107.889 267.916 106.826 266.188 105.338L268.019 152.704C268.019 152.704 272.332 157.377 278.929 156.31V108.517Z" fill="#B60000"/>
<path opacity="0.1" d="M279.943 103.179C279.943 103.179 297.616 97.7697 302.224 98.5315L279.943 103.179Z" fill="#22252C"/>
<path opacity="0.1" d="M260.175 100.817C260.175 100.817 243.044 96.7542 240.183 97.9071L260.175 100.817Z" fill="#22252C"/>
<path opacity="0.1" d="M291.086 103.855C291.086 103.855 302.904 99.5174 307.176 101.579L291.086 103.855Z" fill="#22252C"/>
<path opacity="0.1" d="M285.135 212.661C286.966 211.284 288.915 210.073 290.96 209.04C294.004 207.572 299.586 203.763 299.586 203.763" fill="#22252C"/>
<path opacity="0.1" d="M240.183 160.83C240.183 160.83 232.77 166.899 230.542 167.433C228.315 167.966 226.939 172.7 226.939 172.7" fill="#22252C"/>
<path d="M318.014 175.163L315.65 181.614C315.65 181.614 312.098 184.661 308.206 183.137C304.314 181.614 300.935 180.857 299.24 179.374C297.546 177.891 295.181 170.44 295.181 170.44C295.181 170.44 292.816 162.314 290.447 160.282C288.077 158.25 281.821 130.26 290.447 132.998C299.073 135.735 305.669 161.13 305.669 161.13C305.669 161.13 307.191 162.989 309.388 163.162C311.586 163.334 315.985 162.821 316.832 164.685C317.68 166.549 320.552 171.456 318.014 175.163Z" fill="#BE6F72"/>
<path opacity="0.1" d="M313.869 163.299C313.869 163.299 318.715 166.417 318.695 170.145L313.869 163.299Z" fill="#22252C"/>
<path d="M272.754 72.9037C285.272 72.9037 295.42 62.7461 295.42 50.216C295.42 37.6859 285.272 27.5283 272.754 27.5283C260.236 27.5283 250.088 37.6859 250.088 50.216C250.088 62.7461 260.236 72.9037 272.754 72.9037Z" fill="#BE6F72"/>
<path d="M258.52 44.1263C261.27 43.6946 263.681 42.0947 266.309 41.1754C272.19 39.1083 278.695 40.5253 284.647 42.3893C286.93 43.1054 289.249 43.913 291.644 43.913C294.039 43.913 296.581 42.9327 297.804 40.8656C298.93 38.9661 298.712 36.4977 297.763 34.5017C296.815 32.5056 295.226 30.9007 293.623 29.3872C288.346 24.3996 281.8 19.7371 274.56 20.245C271.647 20.4533 268.861 21.4945 266.182 22.6474C262.809 24.1025 259.525 25.7578 256.349 27.6044C253.908 29.0215 249.387 30.9159 247.981 33.5062C244.785 39.3419 253.548 44.9084 258.52 44.1263Z" fill="#3E373A"/>
<path opacity="0.1" d="M297.804 38.7325C296.581 40.7996 294.039 41.7799 291.644 41.7799C289.249 41.7799 286.93 41.0028 284.642 40.2866C278.69 38.4227 272.19 37.0006 266.304 39.0728C263.681 39.9921 261.265 41.6123 258.515 42.0186C254.507 42.6484 248.053 39.154 247.352 34.71C246.566 39.8448 254.05 44.2431 258.515 43.5422C261.265 43.1105 263.681 41.5107 266.304 40.5965C272.19 38.5243 278.69 39.9464 284.642 41.8103C286.93 42.5265 289.244 43.334 291.644 43.3035C294.044 43.2731 296.581 42.3284 297.804 40.2562C298.438 39.1289 298.687 37.8254 298.515 36.5435C298.435 37.3153 298.193 38.0614 297.804 38.7325Z" fill="#22252C"/>
<path d="M481.746 313.986C481.746 313.986 484.755 317.923 480.356 323.87C475.957 329.817 472.334 334.835 473.795 338.543C473.795 338.543 480.432 327.501 485.831 327.344C491.23 327.187 487.678 320.625 481.746 313.986Z" fill="#E2FDC7"/>
<path opacity="0.1" d="M481.746 313.986C482.008 314.367 482.215 314.782 482.36 315.221C487.627 321.417 490.438 327.202 485.369 327.344C480.65 327.481 474.992 335.927 473.638 338.055C473.681 338.227 473.734 338.397 473.795 338.563C473.795 338.563 480.432 327.522 485.831 327.364C491.23 327.207 487.678 320.625 481.746 313.986Z" fill="#1B1B1B"/>
<path d="M487.327 319.004C487.327 320.391 487.17 321.513 486.982 321.513C486.794 321.513 486.632 320.391 486.632 319.004C486.632 317.618 486.825 318.273 487.017 318.273C487.21 318.273 487.327 317.618 487.327 319.004Z" fill="#FFD037"/>
<path d="M489.251 320.66C488.038 321.32 486.978 321.721 486.886 321.554C486.795 321.386 487.703 320.711 488.916 320.03C490.129 319.349 489.652 319.847 489.743 320.03C489.834 320.213 490.469 319.994 489.251 320.66Z" fill="#FFD037"/>
<path d="M465.843 313.986C465.843 313.986 462.834 317.923 467.234 323.87C471.633 329.817 475.256 334.835 473.789 338.543C473.789 338.543 467.158 327.501 461.754 327.344C456.35 327.187 459.927 320.625 465.843 313.986Z" fill="#E2FDC7"/>
<path opacity="0.1" d="M465.843 313.986C465.581 314.367 465.375 314.782 465.229 315.221C459.962 321.417 457.151 327.202 462.22 327.344C466.934 327.481 472.597 335.927 473.952 338.055C473.909 338.228 473.855 338.398 473.789 338.563C473.789 338.563 467.158 327.522 461.754 327.364C456.35 327.207 459.927 320.625 465.843 313.986Z" fill="#22252C"/>
<path d="M460.252 319.004C460.252 320.391 460.404 321.513 460.597 321.513C460.79 321.513 460.947 320.391 460.947 319.004C460.947 317.618 460.749 318.273 460.561 318.273C460.374 318.273 460.252 317.618 460.252 319.004Z" fill="#FFD037"/>
<path d="M458.334 320.66C459.547 321.32 460.607 321.721 460.699 321.554C460.79 321.386 459.882 320.711 458.669 320.03C457.456 319.349 457.933 319.847 457.842 320.03C457.751 320.213 457.116 319.994 458.334 320.66Z" fill="#FFD037"/>
<path opacity="0.1" d="M473.794 368.671C491.169 368.671 505.254 366.508 505.254 363.841C505.254 361.173 491.169 359.011 473.794 359.011C456.42 359.011 442.335 361.173 442.335 363.841C442.335 366.508 456.42 368.671 473.794 368.671Z" fill="#C73434"/>
<path d="M489.986 333.235L489.834 334.464L489.621 336.201L489.534 336.927L489.321 338.664L489.23 339.391L489.022 341.123L486.612 360.88C486.399 362.642 483.522 364.019 480.046 364.019H467.538C464.062 364.019 461.19 362.642 460.972 360.88L458.562 341.123L458.349 339.391L458.263 338.664L458.05 336.927L457.958 336.201L457.75 334.464L457.598 333.235C457.481 332.219 459.034 331.396 461.003 331.396H486.586C488.55 331.396 490.108 332.235 489.986 333.235Z" fill="#617D78"/>
<path d="M489.834 334.464L489.626 336.201H457.963L457.75 334.464H489.834Z" fill="#9D9CB5"/>
<path d="M489.535 336.928L489.327 338.665H458.263L458.05 336.928H489.535Z" fill="#9D9CB5"/>
<path d="M489.236 339.391L489.022 341.128H458.563L458.354 339.391H489.236Z" fill="#9D9CB5"/>
</g>
<defs>
<filter id="filter0_d" x="83.001" y="247.97" width="305.101" height="53.2027" filterUnits="userSpaceOnUse" color-interpolation-filters="sRGB">
<feFlood flood-opacity="0" result="BackgroundImageFix"/>
<feColorMatrix in="SourceAlpha" type="matrix" values="0 0 0 0 0 0 0 0 0 0 0 0 0 0 0 0 0 0 127 0"/>
<feOffset dy="4"/>
<feGaussianBlur stdDeviation="2"/>
<feColorMatrix type="matrix" values="0 0 0 0 0 0 0 0 0 0 0 0 0 0 0 0 0 0 0.25 0"/>
<feBlend mode="normal" in2="BackgroundImageFix" result="effect1_dropShadow"/>
<feBlend mode="normal" in="SourceGraphic" in2="effect1_dropShadow" result="shape"/>
</filter>
<linearGradient id="paint0_linear" x1="277.371" y1="254.923" x2="277.371" y2="7.72164e-05" gradientUnits="userSpaceOnUse">
<stop stop-color="#808080" stop-opacity="0.25"/>
<stop offset="0.54" stop-color="#808080" stop-opacity="0.12"/>
<stop offset="1" stop-color="#808080" stop-opacity="0.1"/>
</linearGradient>
<clipPath id="clip0">
<rect width="519" height="413" fill="white"/>
</clipPath>
</defs>
</svg>
